# xmcd
#
# Track frame offsets: 
#        150
#        8695
#        26292
#        53285
#        67885
#        82750
#        89828
#        107150
#        134695
#        150583
#        168248
#        190850
#        198130
#        214083
#        233833
#        247520
#        261192
#        278555
#        286258
#
# Disc length: 4163 seconds
#
# Revision: 0
# Processed by: cddbd v1.5.1PL2 Copyright (c) Steve Scherf et al.
# Submitted via: ExactAudioCopy v0.95a5
#
DISCID=ea104113
DTITLE=Dumitru Farcas and Marcel Cellier - Taragot et orgue
DYEAR=1976
DGENRE=Ethnic
TTITLE0=«Marie poale ciurate²
TTITLE1=Cintec de instrainare
TTITLE2=Quand Dieu Crea Les Montagnes, Les Moutons et Les Bergers
TTITLE3=Doina Prieteniei
TTITLE4=Doina «Cind eram copil d-un an»
TTITLE5=Briul lui Cepzan
TTITLE6=Doina «Creste frunza, creste iarba»
TTITLE7=Doina din Batrini - lui Tatuca
TTITLE8=Entre Ciel et Terre
TTITLE9=Appels des Sommets et Danse du Berger
TTITLE10=Doina lui Constantin Gherghina
TTITLE11=Poarga din Pomezau
TTITLE12=Doina «Au sommet de la coline»
TTITLE13=Suite «Un soir en Transylvanie»
TTITLE14=Doina «Les plaines du Banat»
TTITLE15=Deux danses dominicales
TTITLE16=Oh Montagnes aux sapins majestueux!
TTITLE17=Ardeleana de la Zarvesti
TTITLE18=«Cind si-a pierdut ciobanul oile»
EXTD=
EXTT0=
EXTT1=
EXTT2=
EXTT3=
EXTT4=
EXTT5=
EXTT6=
EXTT7=
EXTT8=
EXTT9=
EXTT10=
EXTT11=
EXTT12=
EXTT13=
EXTT14=
EXTT15=
EXTT16=
EXTT17=
EXTT18=
PLAYORDER=
